<mxfile host="app.diagrams.net" modified="2023-03-17T01:26:38.457Z" agent="5.0 (Macintosh; Intel Mac OS X 10_15_7) AppleWebKit/605.1.15 (KHTML, like Gecko) Version/16.3 Safari/605.1.15" etag="bETltUiJ6FOlfKjKXb7H" version="21.0.6" type="github">
  <diagram name="Page-1" id="G_nbBCOGRCetAWr17jqd">
    <mxGraphModel dx="2758" dy="1270" grid="1" gridSize="10" guides="1" tooltips="1" connect="1" arrows="1" fold="1" page="1" pageScale="1" pageWidth="850" pageHeight="1100" math="0" shadow="0">
      <root>
        <mxCell id="0" />
        <mxCell id="1" parent="0" />
        <mxCell id="VEbp2qO7dAAzu8CqoU0H-1" value="M" style="ellipse;whiteSpace=wrap;html=1;aspect=fixed;" vertex="1" parent="1">
          <mxGeometry x="-440" y="80" width="80" height="80" as="geometry" />
        </mxCell>
        <mxCell id="VEbp2qO7dAAzu8CqoU0H-2" value="O" style="ellipse;whiteSpace=wrap;html=1;aspect=fixed;" vertex="1" parent="1">
          <mxGeometry x="-360" y="160" width="80" height="80" as="geometry" />
        </mxCell>
        <mxCell id="VEbp2qO7dAAzu8CqoU0H-3" value="T" style="ellipse;whiteSpace=wrap;html=1;aspect=fixed;fillColor=#dae8fc;strokeColor=#6c8ebf;" vertex="1" parent="1">
          <mxGeometry x="-280" y="240" width="80" height="80" as="geometry" />
        </mxCell>
        <mxCell id="VEbp2qO7dAAzu8CqoU0H-4" value="" style="endArrow=none;html=1;rounded=0;entryX=1;entryY=1;entryDx=0;entryDy=0;exitX=0;exitY=0;exitDx=0;exitDy=0;" edge="1" parent="1" source="VEbp2qO7dAAzu8CqoU0H-3" target="VEbp2qO7dAAzu8CqoU0H-2">
          <mxGeometry width="50" height="50" relative="1" as="geometry">
            <mxPoint x="-201" y="296" as="sourcePoint" />
            <mxPoint x="-151" y="246" as="targetPoint" />
          </mxGeometry>
        </mxCell>
        <mxCell id="VEbp2qO7dAAzu8CqoU0H-5" value="" style="endArrow=none;html=1;rounded=0;exitX=0;exitY=0;exitDx=0;exitDy=0;entryX=1;entryY=1;entryDx=0;entryDy=0;" edge="1" parent="1" source="VEbp2qO7dAAzu8CqoU0H-2" target="VEbp2qO7dAAzu8CqoU0H-1">
          <mxGeometry width="50" height="50" relative="1" as="geometry">
            <mxPoint x="-407" y="209" as="sourcePoint" />
            <mxPoint x="-357" y="159" as="targetPoint" />
          </mxGeometry>
        </mxCell>
        <mxCell id="VEbp2qO7dAAzu8CqoU0H-6" value="O" style="ellipse;whiteSpace=wrap;html=1;aspect=fixed;" vertex="1" parent="1">
          <mxGeometry x="-80" y="80" width="80" height="80" as="geometry" />
        </mxCell>
        <mxCell id="VEbp2qO7dAAzu8CqoU0H-7" value="M" style="ellipse;whiteSpace=wrap;html=1;aspect=fixed;" vertex="1" parent="1">
          <mxGeometry x="-160" y="160" width="80" height="80" as="geometry" />
        </mxCell>
        <mxCell id="VEbp2qO7dAAzu8CqoU0H-8" value="T" style="ellipse;whiteSpace=wrap;html=1;aspect=fixed;" vertex="1" parent="1">
          <mxGeometry y="160" width="80" height="80" as="geometry" />
        </mxCell>
        <mxCell id="VEbp2qO7dAAzu8CqoU0H-9" value="" style="endArrow=none;html=1;rounded=0;entryX=0;entryY=1;entryDx=0;entryDy=0;" edge="1" parent="1" source="VEbp2qO7dAAzu8CqoU0H-7" target="VEbp2qO7dAAzu8CqoU0H-6">
          <mxGeometry width="50" height="50" relative="1" as="geometry">
            <mxPoint x="-90" y="170" as="sourcePoint" />
            <mxPoint x="-60" y="140" as="targetPoint" />
          </mxGeometry>
        </mxCell>
        <mxCell id="VEbp2qO7dAAzu8CqoU0H-10" value="" style="endArrow=none;html=1;rounded=0;entryX=1;entryY=1;entryDx=0;entryDy=0;exitX=0;exitY=0;exitDx=0;exitDy=0;" edge="1" parent="1" source="VEbp2qO7dAAzu8CqoU0H-8" target="VEbp2qO7dAAzu8CqoU0H-6">
          <mxGeometry width="50" height="50" relative="1" as="geometry">
            <mxPoint x="-80" y="180" as="sourcePoint" />
            <mxPoint x="-58" y="158" as="targetPoint" />
          </mxGeometry>
        </mxCell>
        <mxCell id="VEbp2qO7dAAzu8CqoU0H-12" value="&lt;font style=&quot;font-size: 16px;&quot;&gt;rotateLeft()&lt;/font&gt;" style="text;html=1;strokeColor=none;fillColor=none;align=center;verticalAlign=middle;whiteSpace=wrap;rounded=0;fontSize=16;fontFamily=Lucida Console;" vertex="1" parent="1">
          <mxGeometry x="-200" y="40" width="80" height="30" as="geometry" />
        </mxCell>
        <mxCell id="VEbp2qO7dAAzu8CqoU0H-13" value="O" style="ellipse;whiteSpace=wrap;html=1;aspect=fixed;" vertex="1" parent="1">
          <mxGeometry x="-560.0000000000001" y="360" width="80" height="80" as="geometry" />
        </mxCell>
        <mxCell id="VEbp2qO7dAAzu8CqoU0H-14" value="M" style="ellipse;whiteSpace=wrap;html=1;aspect=fixed;" vertex="1" parent="1">
          <mxGeometry x="-720.0000000000001" y="440" width="80" height="80" as="geometry" />
        </mxCell>
        <mxCell id="VEbp2qO7dAAzu8CqoU0H-15" value="T" style="ellipse;whiteSpace=wrap;html=1;aspect=fixed;" vertex="1" parent="1">
          <mxGeometry x="-400" y="440" width="80" height="80" as="geometry" />
        </mxCell>
        <mxCell id="VEbp2qO7dAAzu8CqoU0H-16" value="" style="endArrow=none;html=1;rounded=0;entryX=0;entryY=1;entryDx=0;entryDy=0;" edge="1" parent="1" source="VEbp2qO7dAAzu8CqoU0H-14" target="VEbp2qO7dAAzu8CqoU0H-13">
          <mxGeometry width="50" height="50" relative="1" as="geometry">
            <mxPoint x="-570.0000000000001" y="450" as="sourcePoint" />
            <mxPoint x="-540.0000000000001" y="420" as="targetPoint" />
          </mxGeometry>
        </mxCell>
        <mxCell id="VEbp2qO7dAAzu8CqoU0H-17" value="" style="endArrow=none;html=1;rounded=0;entryX=1;entryY=1;entryDx=0;entryDy=0;exitX=0;exitY=0;exitDx=0;exitDy=0;" edge="1" parent="1" source="VEbp2qO7dAAzu8CqoU0H-15" target="VEbp2qO7dAAzu8CqoU0H-13">
          <mxGeometry width="50" height="50" relative="1" as="geometry">
            <mxPoint x="-560.0000000000001" y="460" as="sourcePoint" />
            <mxPoint x="-538.0000000000001" y="438" as="targetPoint" />
          </mxGeometry>
        </mxCell>
        <mxCell id="VEbp2qO7dAAzu8CqoU0H-18" value="A" style="ellipse;whiteSpace=wrap;html=1;aspect=fixed;" vertex="1" parent="1">
          <mxGeometry x="-800.0000000000001" y="520" width="80" height="80" as="geometry" />
        </mxCell>
        <mxCell id="VEbp2qO7dAAzu8CqoU0H-19" value="D" style="ellipse;whiteSpace=wrap;html=1;aspect=fixed;fillColor=#dae8fc;strokeColor=#6c8ebf;" vertex="1" parent="1">
          <mxGeometry x="-720.0000000000001" y="600" width="80" height="80" as="geometry" />
        </mxCell>
        <mxCell id="VEbp2qO7dAAzu8CqoU0H-21" value="" style="endArrow=none;html=1;rounded=0;exitX=1;exitY=0;exitDx=0;exitDy=0;entryX=0;entryY=1;entryDx=0;entryDy=0;" edge="1" parent="1" target="VEbp2qO7dAAzu8CqoU0H-14">
          <mxGeometry width="50" height="50" relative="1" as="geometry">
            <mxPoint x="-731.7157287525382" y="531.7157287525381" as="sourcePoint" />
            <mxPoint x="-710.0000000000001" y="530" as="targetPoint" />
          </mxGeometry>
        </mxCell>
        <mxCell id="VEbp2qO7dAAzu8CqoU0H-22" value="" style="endArrow=none;html=1;rounded=0;entryX=1;entryY=1;entryDx=0;entryDy=0;exitX=0;exitY=0;exitDx=0;exitDy=0;" edge="1" parent="1" target="VEbp2qO7dAAzu8CqoU0H-18">
          <mxGeometry width="50" height="50" relative="1" as="geometry">
            <mxPoint x="-708.2842712474763" y="611.7157287525238" as="sourcePoint" />
            <mxPoint x="-731.7157287525382" y="588.2842712474619" as="targetPoint" />
          </mxGeometry>
        </mxCell>
        <mxCell id="VEbp2qO7dAAzu8CqoU0H-23" value="rotateLeft()&lt;br style=&quot;font-size: 16px;&quot;&gt;rotateRight()" style="text;html=1;strokeColor=none;fillColor=none;align=center;verticalAlign=middle;whiteSpace=wrap;rounded=0;fontFamily=Lucida Console;fontSize=16;" vertex="1" parent="1">
          <mxGeometry x="-200" y="360" width="100" height="30" as="geometry" />
        </mxCell>
        <mxCell id="VEbp2qO7dAAzu8CqoU0H-24" value="O" style="ellipse;whiteSpace=wrap;html=1;aspect=fixed;" vertex="1" parent="1">
          <mxGeometry x="-40" y="360" width="80" height="80" as="geometry" />
        </mxCell>
        <mxCell id="VEbp2qO7dAAzu8CqoU0H-25" value="M" style="ellipse;whiteSpace=wrap;html=1;aspect=fixed;" vertex="1" parent="1">
          <mxGeometry x="-120" y="520" width="80" height="80" as="geometry" />
        </mxCell>
        <mxCell id="VEbp2qO7dAAzu8CqoU0H-26" value="T" style="ellipse;whiteSpace=wrap;html=1;aspect=fixed;" vertex="1" parent="1">
          <mxGeometry x="120" y="440" width="80" height="80" as="geometry" />
        </mxCell>
        <mxCell id="VEbp2qO7dAAzu8CqoU0H-27" value="" style="endArrow=none;html=1;rounded=0;entryX=0;entryY=1;entryDx=0;entryDy=0;exitX=1;exitY=0;exitDx=0;exitDy=0;" edge="1" parent="1" source="VEbp2qO7dAAzu8CqoU0H-30" target="VEbp2qO7dAAzu8CqoU0H-24">
          <mxGeometry width="50" height="50" relative="1" as="geometry">
            <mxPoint x="-50" y="450" as="sourcePoint" />
            <mxPoint x="-20" y="420" as="targetPoint" />
          </mxGeometry>
        </mxCell>
        <mxCell id="VEbp2qO7dAAzu8CqoU0H-28" value="" style="endArrow=none;html=1;rounded=0;entryX=1;entryY=1;entryDx=0;entryDy=0;exitX=0;exitY=0;exitDx=0;exitDy=0;" edge="1" parent="1" source="VEbp2qO7dAAzu8CqoU0H-26" target="VEbp2qO7dAAzu8CqoU0H-24">
          <mxGeometry width="50" height="50" relative="1" as="geometry">
            <mxPoint x="-40" y="460" as="sourcePoint" />
            <mxPoint x="-18" y="438" as="targetPoint" />
          </mxGeometry>
        </mxCell>
        <mxCell id="VEbp2qO7dAAzu8CqoU0H-29" value="A" style="ellipse;whiteSpace=wrap;html=1;aspect=fixed;" vertex="1" parent="1">
          <mxGeometry x="-280" y="520" width="80" height="80" as="geometry" />
        </mxCell>
        <mxCell id="VEbp2qO7dAAzu8CqoU0H-30" value="D" style="ellipse;whiteSpace=wrap;html=1;aspect=fixed;" vertex="1" parent="1">
          <mxGeometry x="-200" y="440" width="80" height="80" as="geometry" />
        </mxCell>
        <mxCell id="VEbp2qO7dAAzu8CqoU0H-31" value="" style="endArrow=none;html=1;rounded=0;exitX=1;exitY=1;exitDx=0;exitDy=0;entryX=0;entryY=0;entryDx=0;entryDy=0;" edge="1" parent="1" source="VEbp2qO7dAAzu8CqoU0H-30" target="VEbp2qO7dAAzu8CqoU0H-25">
          <mxGeometry width="50" height="50" relative="1" as="geometry">
            <mxPoint x="168" y="192" as="sourcePoint" />
            <mxPoint x="-190" y="530" as="targetPoint" />
          </mxGeometry>
        </mxCell>
        <mxCell id="VEbp2qO7dAAzu8CqoU0H-32" value="" style="endArrow=none;html=1;rounded=0;entryX=1;entryY=0;entryDx=0;entryDy=0;exitX=0;exitY=1;exitDx=0;exitDy=0;" edge="1" parent="1" source="VEbp2qO7dAAzu8CqoU0H-30" target="VEbp2qO7dAAzu8CqoU0H-29">
          <mxGeometry width="50" height="50" relative="1" as="geometry">
            <mxPoint x="178" y="202" as="sourcePoint" />
            <mxPoint x="202" y="178" as="targetPoint" />
          </mxGeometry>
        </mxCell>
        <mxCell id="VEbp2qO7dAAzu8CqoU0H-33" value="O" style="ellipse;whiteSpace=wrap;html=1;aspect=fixed;" vertex="1" parent="1">
          <mxGeometry x="480" y="360" width="80" height="80" as="geometry" />
        </mxCell>
        <mxCell id="VEbp2qO7dAAzu8CqoU0H-34" value="M" style="ellipse;whiteSpace=wrap;html=1;aspect=fixed;" vertex="1" parent="1">
          <mxGeometry x="400" y="520" width="80" height="80" as="geometry" />
        </mxCell>
        <mxCell id="VEbp2qO7dAAzu8CqoU0H-35" value="T" style="ellipse;whiteSpace=wrap;html=1;aspect=fixed;" vertex="1" parent="1">
          <mxGeometry x="640" y="440" width="80" height="80" as="geometry" />
        </mxCell>
        <mxCell id="VEbp2qO7dAAzu8CqoU0H-36" value="" style="endArrow=none;html=1;rounded=0;entryX=0;entryY=1;entryDx=0;entryDy=0;exitX=1;exitY=0;exitDx=0;exitDy=0;" edge="1" parent="1" source="VEbp2qO7dAAzu8CqoU0H-39" target="VEbp2qO7dAAzu8CqoU0H-33">
          <mxGeometry width="50" height="50" relative="1" as="geometry">
            <mxPoint x="470" y="450" as="sourcePoint" />
            <mxPoint x="500" y="420" as="targetPoint" />
          </mxGeometry>
        </mxCell>
        <mxCell id="VEbp2qO7dAAzu8CqoU0H-37" value="" style="endArrow=none;html=1;rounded=0;entryX=1;entryY=1;entryDx=0;entryDy=0;exitX=0;exitY=0;exitDx=0;exitDy=0;" edge="1" parent="1" source="VEbp2qO7dAAzu8CqoU0H-35" target="VEbp2qO7dAAzu8CqoU0H-33">
          <mxGeometry width="50" height="50" relative="1" as="geometry">
            <mxPoint x="480" y="460" as="sourcePoint" />
            <mxPoint x="502" y="438" as="targetPoint" />
          </mxGeometry>
        </mxCell>
        <mxCell id="VEbp2qO7dAAzu8CqoU0H-38" value="A" style="ellipse;whiteSpace=wrap;html=1;aspect=fixed;" vertex="1" parent="1">
          <mxGeometry x="240" y="520" width="80" height="80" as="geometry" />
        </mxCell>
        <mxCell id="VEbp2qO7dAAzu8CqoU0H-39" value="D" style="ellipse;whiteSpace=wrap;html=1;aspect=fixed;" vertex="1" parent="1">
          <mxGeometry x="320" y="440" width="80" height="80" as="geometry" />
        </mxCell>
        <mxCell id="VEbp2qO7dAAzu8CqoU0H-40" value="" style="endArrow=none;html=1;rounded=0;exitX=1;exitY=1;exitDx=0;exitDy=0;entryX=0;entryY=0;entryDx=0;entryDy=0;" edge="1" parent="1" source="VEbp2qO7dAAzu8CqoU0H-39" target="VEbp2qO7dAAzu8CqoU0H-34">
          <mxGeometry width="50" height="50" relative="1" as="geometry">
            <mxPoint x="688" y="192" as="sourcePoint" />
            <mxPoint x="330" y="530" as="targetPoint" />
          </mxGeometry>
        </mxCell>
        <mxCell id="VEbp2qO7dAAzu8CqoU0H-41" value="" style="endArrow=none;html=1;rounded=0;entryX=1;entryY=0;entryDx=0;entryDy=0;exitX=0;exitY=1;exitDx=0;exitDy=0;" edge="1" parent="1" source="VEbp2qO7dAAzu8CqoU0H-39" target="VEbp2qO7dAAzu8CqoU0H-38">
          <mxGeometry width="50" height="50" relative="1" as="geometry">
            <mxPoint x="698" y="202" as="sourcePoint" />
            <mxPoint x="722" y="178" as="targetPoint" />
          </mxGeometry>
        </mxCell>
        <mxCell id="VEbp2qO7dAAzu8CqoU0H-43" value="E" style="ellipse;whiteSpace=wrap;html=1;aspect=fixed;fillColor=#dae8fc;strokeColor=#6c8ebf;" vertex="1" parent="1">
          <mxGeometry x="320" y="600" width="80" height="80" as="geometry" />
        </mxCell>
        <mxCell id="VEbp2qO7dAAzu8CqoU0H-44" value="" style="endArrow=none;html=1;rounded=0;entryX=0;entryY=1;entryDx=0;entryDy=0;exitX=1;exitY=0;exitDx=0;exitDy=0;" edge="1" parent="1" source="VEbp2qO7dAAzu8CqoU0H-43" target="VEbp2qO7dAAzu8CqoU0H-34">
          <mxGeometry width="50" height="50" relative="1" as="geometry">
            <mxPoint x="390" y="610" as="sourcePoint" />
            <mxPoint x="410" y="590" as="targetPoint" />
          </mxGeometry>
        </mxCell>
        <mxCell id="VEbp2qO7dAAzu8CqoU0H-45" value="M" style="ellipse;whiteSpace=wrap;html=1;aspect=fixed;" vertex="1" parent="1">
          <mxGeometry x="-600" y="720" width="80" height="80" as="geometry" />
        </mxCell>
        <mxCell id="VEbp2qO7dAAzu8CqoU0H-46" value="E" style="ellipse;whiteSpace=wrap;html=1;aspect=fixed;" vertex="1" parent="1">
          <mxGeometry x="-680" y="880" width="80" height="80" as="geometry" />
        </mxCell>
        <mxCell id="VEbp2qO7dAAzu8CqoU0H-47" value="O" style="ellipse;whiteSpace=wrap;html=1;aspect=fixed;" vertex="1" parent="1">
          <mxGeometry x="-440" y="800" width="80" height="80" as="geometry" />
        </mxCell>
        <mxCell id="VEbp2qO7dAAzu8CqoU0H-48" value="" style="endArrow=none;html=1;rounded=0;entryX=0;entryY=1;entryDx=0;entryDy=0;exitX=1;exitY=0;exitDx=0;exitDy=0;" edge="1" parent="1" source="VEbp2qO7dAAzu8CqoU0H-51" target="VEbp2qO7dAAzu8CqoU0H-45">
          <mxGeometry width="50" height="50" relative="1" as="geometry">
            <mxPoint x="-610" y="810" as="sourcePoint" />
            <mxPoint x="-580" y="780" as="targetPoint" />
          </mxGeometry>
        </mxCell>
        <mxCell id="VEbp2qO7dAAzu8CqoU0H-49" value="" style="endArrow=none;html=1;rounded=0;entryX=1;entryY=1;entryDx=0;entryDy=0;exitX=0;exitY=0;exitDx=0;exitDy=0;" edge="1" parent="1" source="VEbp2qO7dAAzu8CqoU0H-47" target="VEbp2qO7dAAzu8CqoU0H-45">
          <mxGeometry width="50" height="50" relative="1" as="geometry">
            <mxPoint x="-600" y="820" as="sourcePoint" />
            <mxPoint x="-578" y="798" as="targetPoint" />
          </mxGeometry>
        </mxCell>
        <mxCell id="VEbp2qO7dAAzu8CqoU0H-50" value="A" style="ellipse;whiteSpace=wrap;html=1;aspect=fixed;" vertex="1" parent="1">
          <mxGeometry x="-840" y="880" width="80" height="80" as="geometry" />
        </mxCell>
        <mxCell id="VEbp2qO7dAAzu8CqoU0H-51" value="D" style="ellipse;whiteSpace=wrap;html=1;aspect=fixed;" vertex="1" parent="1">
          <mxGeometry x="-760" y="800" width="80" height="80" as="geometry" />
        </mxCell>
        <mxCell id="VEbp2qO7dAAzu8CqoU0H-52" value="" style="endArrow=none;html=1;rounded=0;exitX=1;exitY=1;exitDx=0;exitDy=0;entryX=0;entryY=0;entryDx=0;entryDy=0;" edge="1" parent="1" source="VEbp2qO7dAAzu8CqoU0H-51" target="VEbp2qO7dAAzu8CqoU0H-46">
          <mxGeometry width="50" height="50" relative="1" as="geometry">
            <mxPoint x="-392" y="552" as="sourcePoint" />
            <mxPoint x="-750" y="890" as="targetPoint" />
          </mxGeometry>
        </mxCell>
        <mxCell id="VEbp2qO7dAAzu8CqoU0H-53" value="" style="endArrow=none;html=1;rounded=0;entryX=1;entryY=0;entryDx=0;entryDy=0;exitX=0;exitY=1;exitDx=0;exitDy=0;" edge="1" parent="1" source="VEbp2qO7dAAzu8CqoU0H-51" target="VEbp2qO7dAAzu8CqoU0H-50">
          <mxGeometry width="50" height="50" relative="1" as="geometry">
            <mxPoint x="-382" y="562" as="sourcePoint" />
            <mxPoint x="-358" y="538" as="targetPoint" />
          </mxGeometry>
        </mxCell>
        <mxCell id="VEbp2qO7dAAzu8CqoU0H-54" value="T" style="ellipse;whiteSpace=wrap;html=1;aspect=fixed;" vertex="1" parent="1">
          <mxGeometry x="-360" y="880" width="80" height="80" as="geometry" />
        </mxCell>
        <mxCell id="VEbp2qO7dAAzu8CqoU0H-56" value="" style="endArrow=none;html=1;rounded=0;entryX=0;entryY=0;entryDx=0;entryDy=0;exitX=1;exitY=1;exitDx=0;exitDy=0;" edge="1" parent="1" source="VEbp2qO7dAAzu8CqoU0H-47" target="VEbp2qO7dAAzu8CqoU0H-54">
          <mxGeometry width="50" height="50" relative="1" as="geometry">
            <mxPoint x="-450" y="960" as="sourcePoint" />
            <mxPoint x="-400" y="910" as="targetPoint" />
          </mxGeometry>
        </mxCell>
        <mxCell id="VEbp2qO7dAAzu8CqoU0H-57" value="rotateLeft()&lt;br style=&quot;font-size: 16px;&quot;&gt;rotateRight()" style="text;html=1;strokeColor=none;fillColor=none;align=center;verticalAlign=middle;whiteSpace=wrap;rounded=0;fontFamily=Lucida Console;fontSize=16;" vertex="1" parent="1">
          <mxGeometry x="-800" y="720" width="130" height="30" as="geometry" />
        </mxCell>
        <mxCell id="VEbp2qO7dAAzu8CqoU0H-58" value="M" style="ellipse;whiteSpace=wrap;html=1;aspect=fixed;" vertex="1" parent="1">
          <mxGeometry x="-600" y="1080" width="80" height="80" as="geometry" />
        </mxCell>
        <mxCell id="VEbp2qO7dAAzu8CqoU0H-59" value="E" style="ellipse;whiteSpace=wrap;html=1;aspect=fixed;" vertex="1" parent="1">
          <mxGeometry x="-680" y="1240" width="80" height="80" as="geometry" />
        </mxCell>
        <mxCell id="VEbp2qO7dAAzu8CqoU0H-60" value="O" style="ellipse;whiteSpace=wrap;html=1;aspect=fixed;" vertex="1" parent="1">
          <mxGeometry x="-440" y="1160" width="80" height="80" as="geometry" />
        </mxCell>
        <mxCell id="VEbp2qO7dAAzu8CqoU0H-61" value="" style="endArrow=none;html=1;rounded=0;entryX=0;entryY=1;entryDx=0;entryDy=0;exitX=1;exitY=0;exitDx=0;exitDy=0;" edge="1" parent="1" source="VEbp2qO7dAAzu8CqoU0H-64" target="VEbp2qO7dAAzu8CqoU0H-58">
          <mxGeometry width="50" height="50" relative="1" as="geometry">
            <mxPoint x="-610" y="1170" as="sourcePoint" />
            <mxPoint x="-580" y="1140" as="targetPoint" />
          </mxGeometry>
        </mxCell>
        <mxCell id="VEbp2qO7dAAzu8CqoU0H-62" value="" style="endArrow=none;html=1;rounded=0;entryX=1;entryY=1;entryDx=0;entryDy=0;exitX=0;exitY=0;exitDx=0;exitDy=0;" edge="1" parent="1" source="VEbp2qO7dAAzu8CqoU0H-60" target="VEbp2qO7dAAzu8CqoU0H-58">
          <mxGeometry width="50" height="50" relative="1" as="geometry">
            <mxPoint x="-600" y="1180" as="sourcePoint" />
            <mxPoint x="-578" y="1158" as="targetPoint" />
          </mxGeometry>
        </mxCell>
        <mxCell id="VEbp2qO7dAAzu8CqoU0H-63" value="A" style="ellipse;whiteSpace=wrap;html=1;aspect=fixed;" vertex="1" parent="1">
          <mxGeometry x="-840" y="1240" width="80" height="80" as="geometry" />
        </mxCell>
        <mxCell id="VEbp2qO7dAAzu8CqoU0H-64" value="D" style="ellipse;whiteSpace=wrap;html=1;aspect=fixed;" vertex="1" parent="1">
          <mxGeometry x="-760" y="1160" width="80" height="80" as="geometry" />
        </mxCell>
        <mxCell id="VEbp2qO7dAAzu8CqoU0H-65" value="" style="endArrow=none;html=1;rounded=0;exitX=1;exitY=1;exitDx=0;exitDy=0;entryX=0;entryY=0;entryDx=0;entryDy=0;" edge="1" parent="1" source="VEbp2qO7dAAzu8CqoU0H-64" target="VEbp2qO7dAAzu8CqoU0H-59">
          <mxGeometry width="50" height="50" relative="1" as="geometry">
            <mxPoint x="-392" y="912" as="sourcePoint" />
            <mxPoint x="-750" y="1250" as="targetPoint" />
          </mxGeometry>
        </mxCell>
        <mxCell id="VEbp2qO7dAAzu8CqoU0H-66" value="" style="endArrow=none;html=1;rounded=0;entryX=1;entryY=0;entryDx=0;entryDy=0;exitX=0;exitY=1;exitDx=0;exitDy=0;" edge="1" parent="1" source="VEbp2qO7dAAzu8CqoU0H-64" target="VEbp2qO7dAAzu8CqoU0H-63">
          <mxGeometry width="50" height="50" relative="1" as="geometry">
            <mxPoint x="-382" y="922" as="sourcePoint" />
            <mxPoint x="-358" y="898" as="targetPoint" />
          </mxGeometry>
        </mxCell>
        <mxCell id="VEbp2qO7dAAzu8CqoU0H-67" value="T" style="ellipse;whiteSpace=wrap;html=1;aspect=fixed;" vertex="1" parent="1">
          <mxGeometry x="-360" y="1240" width="80" height="80" as="geometry" />
        </mxCell>
        <mxCell id="VEbp2qO7dAAzu8CqoU0H-68" value="" style="endArrow=none;html=1;rounded=0;entryX=0;entryY=0;entryDx=0;entryDy=0;exitX=1;exitY=1;exitDx=0;exitDy=0;" edge="1" parent="1" source="VEbp2qO7dAAzu8CqoU0H-60" target="VEbp2qO7dAAzu8CqoU0H-67">
          <mxGeometry width="50" height="50" relative="1" as="geometry">
            <mxPoint x="-450" y="1320" as="sourcePoint" />
            <mxPoint x="-400" y="1270" as="targetPoint" />
          </mxGeometry>
        </mxCell>
        <mxCell id="VEbp2qO7dAAzu8CqoU0H-69" value="I" style="ellipse;whiteSpace=wrap;html=1;aspect=fixed;" vertex="1" parent="1">
          <mxGeometry x="-600" y="1320" width="80" height="80" as="geometry" />
        </mxCell>
        <mxCell id="VEbp2qO7dAAzu8CqoU0H-70" value="" style="endArrow=none;html=1;rounded=0;entryX=0;entryY=0;entryDx=0;entryDy=0;exitX=1;exitY=1;exitDx=0;exitDy=0;" edge="1" parent="1" source="VEbp2qO7dAAzu8CqoU0H-59" target="VEbp2qO7dAAzu8CqoU0H-69">
          <mxGeometry width="50" height="50" relative="1" as="geometry">
            <mxPoint x="-660" y="1400" as="sourcePoint" />
            <mxPoint x="-610" y="1350" as="targetPoint" />
          </mxGeometry>
        </mxCell>
        <mxCell id="VEbp2qO7dAAzu8CqoU0H-71" value="S" style="ellipse;whiteSpace=wrap;html=1;aspect=fixed;fillColor=#dae8fc;strokeColor=#6c8ebf;" vertex="1" parent="1">
          <mxGeometry x="-440" y="1320" width="80" height="80" as="geometry" />
        </mxCell>
        <mxCell id="VEbp2qO7dAAzu8CqoU0H-72" value="" style="endArrow=none;html=1;rounded=0;entryX=0;entryY=1;entryDx=0;entryDy=0;exitX=1;exitY=0;exitDx=0;exitDy=0;" edge="1" parent="1" source="VEbp2qO7dAAzu8CqoU0H-71" target="VEbp2qO7dAAzu8CqoU0H-67">
          <mxGeometry width="50" height="50" relative="1" as="geometry">
            <mxPoint x="-320" y="1410" as="sourcePoint" />
            <mxPoint x="-270" y="1360" as="targetPoint" />
          </mxGeometry>
        </mxCell>
        <mxCell id="VEbp2qO7dAAzu8CqoU0H-73" value="M" style="ellipse;whiteSpace=wrap;html=1;aspect=fixed;" vertex="1" parent="1">
          <mxGeometry y="1080" width="80" height="80" as="geometry" />
        </mxCell>
        <mxCell id="VEbp2qO7dAAzu8CqoU0H-74" value="E" style="ellipse;whiteSpace=wrap;html=1;aspect=fixed;" vertex="1" parent="1">
          <mxGeometry x="-80" y="1240" width="80" height="80" as="geometry" />
        </mxCell>
        <mxCell id="VEbp2qO7dAAzu8CqoU0H-75" value="S" style="ellipse;whiteSpace=wrap;html=1;aspect=fixed;" vertex="1" parent="1">
          <mxGeometry x="160" y="1160" width="80" height="80" as="geometry" />
        </mxCell>
        <mxCell id="VEbp2qO7dAAzu8CqoU0H-76" value="" style="endArrow=none;html=1;rounded=0;entryX=0;entryY=1;entryDx=0;entryDy=0;exitX=1;exitY=0;exitDx=0;exitDy=0;" edge="1" parent="1" source="VEbp2qO7dAAzu8CqoU0H-79" target="VEbp2qO7dAAzu8CqoU0H-73">
          <mxGeometry width="50" height="50" relative="1" as="geometry">
            <mxPoint x="-10" y="1170" as="sourcePoint" />
            <mxPoint x="20" y="1140" as="targetPoint" />
          </mxGeometry>
        </mxCell>
        <mxCell id="VEbp2qO7dAAzu8CqoU0H-77" value="" style="endArrow=none;html=1;rounded=0;entryX=1;entryY=1;entryDx=0;entryDy=0;exitX=0;exitY=0;exitDx=0;exitDy=0;" edge="1" parent="1" source="VEbp2qO7dAAzu8CqoU0H-75" target="VEbp2qO7dAAzu8CqoU0H-73">
          <mxGeometry width="50" height="50" relative="1" as="geometry">
            <mxPoint y="1180" as="sourcePoint" />
            <mxPoint x="22" y="1158" as="targetPoint" />
          </mxGeometry>
        </mxCell>
        <mxCell id="VEbp2qO7dAAzu8CqoU0H-78" value="A" style="ellipse;whiteSpace=wrap;html=1;aspect=fixed;" vertex="1" parent="1">
          <mxGeometry x="-240" y="1240" width="80" height="80" as="geometry" />
        </mxCell>
        <mxCell id="VEbp2qO7dAAzu8CqoU0H-79" value="D" style="ellipse;whiteSpace=wrap;html=1;aspect=fixed;" vertex="1" parent="1">
          <mxGeometry x="-160" y="1160" width="80" height="80" as="geometry" />
        </mxCell>
        <mxCell id="VEbp2qO7dAAzu8CqoU0H-80" value="" style="endArrow=none;html=1;rounded=0;exitX=1;exitY=1;exitDx=0;exitDy=0;entryX=0;entryY=0;entryDx=0;entryDy=0;" edge="1" parent="1" source="VEbp2qO7dAAzu8CqoU0H-79" target="VEbp2qO7dAAzu8CqoU0H-74">
          <mxGeometry width="50" height="50" relative="1" as="geometry">
            <mxPoint x="208" y="912" as="sourcePoint" />
            <mxPoint x="-150" y="1250" as="targetPoint" />
          </mxGeometry>
        </mxCell>
        <mxCell id="VEbp2qO7dAAzu8CqoU0H-81" value="" style="endArrow=none;html=1;rounded=0;entryX=1;entryY=0;entryDx=0;entryDy=0;exitX=0;exitY=1;exitDx=0;exitDy=0;" edge="1" parent="1" source="VEbp2qO7dAAzu8CqoU0H-79" target="VEbp2qO7dAAzu8CqoU0H-78">
          <mxGeometry width="50" height="50" relative="1" as="geometry">
            <mxPoint x="218" y="922" as="sourcePoint" />
            <mxPoint x="242" y="898" as="targetPoint" />
          </mxGeometry>
        </mxCell>
        <mxCell id="VEbp2qO7dAAzu8CqoU0H-82" value="T" style="ellipse;whiteSpace=wrap;html=1;aspect=fixed;" vertex="1" parent="1">
          <mxGeometry x="240" y="1240" width="80" height="80" as="geometry" />
        </mxCell>
        <mxCell id="VEbp2qO7dAAzu8CqoU0H-83" value="" style="endArrow=none;html=1;rounded=0;entryX=0;entryY=0;entryDx=0;entryDy=0;exitX=1;exitY=1;exitDx=0;exitDy=0;" edge="1" parent="1" source="VEbp2qO7dAAzu8CqoU0H-75" target="VEbp2qO7dAAzu8CqoU0H-82">
          <mxGeometry width="50" height="50" relative="1" as="geometry">
            <mxPoint x="150" y="1320" as="sourcePoint" />
            <mxPoint x="200" y="1270" as="targetPoint" />
          </mxGeometry>
        </mxCell>
        <mxCell id="VEbp2qO7dAAzu8CqoU0H-84" value="O" style="ellipse;whiteSpace=wrap;html=1;aspect=fixed;" vertex="1" parent="1">
          <mxGeometry x="80" y="1240" width="80" height="80" as="geometry" />
        </mxCell>
        <mxCell id="VEbp2qO7dAAzu8CqoU0H-85" value="" style="endArrow=none;html=1;rounded=0;entryX=1;entryY=0;entryDx=0;entryDy=0;exitX=0;exitY=1;exitDx=0;exitDy=0;" edge="1" parent="1" target="VEbp2qO7dAAzu8CqoU0H-84" source="VEbp2qO7dAAzu8CqoU0H-75">
          <mxGeometry width="50" height="50" relative="1" as="geometry">
            <mxPoint x="172" y="1228" as="sourcePoint" />
            <mxPoint x="562" y="898" as="targetPoint" />
          </mxGeometry>
        </mxCell>
        <mxCell id="VEbp2qO7dAAzu8CqoU0H-86" value="I" style="ellipse;whiteSpace=wrap;html=1;aspect=fixed;" vertex="1" parent="1">
          <mxGeometry y="1320" width="80" height="80" as="geometry" />
        </mxCell>
        <mxCell id="VEbp2qO7dAAzu8CqoU0H-87" value="" style="endArrow=none;html=1;rounded=0;entryX=0;entryY=0;entryDx=0;entryDy=0;exitX=1;exitY=1;exitDx=0;exitDy=0;" edge="1" parent="1" target="VEbp2qO7dAAzu8CqoU0H-86" source="VEbp2qO7dAAzu8CqoU0H-74">
          <mxGeometry width="50" height="50" relative="1" as="geometry">
            <mxPoint x="-12" y="1308" as="sourcePoint" />
            <mxPoint x="-10" y="1350" as="targetPoint" />
          </mxGeometry>
        </mxCell>
        <mxCell id="VEbp2qO7dAAzu8CqoU0H-89" value="M" style="ellipse;whiteSpace=wrap;html=1;aspect=fixed;" vertex="1" parent="1">
          <mxGeometry x="-520" y="1440" width="80" height="80" as="geometry" />
        </mxCell>
        <mxCell id="VEbp2qO7dAAzu8CqoU0H-90" value="E" style="ellipse;whiteSpace=wrap;html=1;aspect=fixed;" vertex="1" parent="1">
          <mxGeometry x="-680" y="1600" width="80" height="80" as="geometry" />
        </mxCell>
        <mxCell id="VEbp2qO7dAAzu8CqoU0H-91" value="S" style="ellipse;whiteSpace=wrap;html=1;aspect=fixed;" vertex="1" parent="1">
          <mxGeometry x="-320" y="1520" width="80" height="80" as="geometry" />
        </mxCell>
        <mxCell id="VEbp2qO7dAAzu8CqoU0H-92" value="" style="endArrow=none;html=1;rounded=0;entryX=0;entryY=1;entryDx=0;entryDy=0;exitX=1;exitY=0;exitDx=0;exitDy=0;" edge="1" parent="1" source="VEbp2qO7dAAzu8CqoU0H-95" target="VEbp2qO7dAAzu8CqoU0H-89">
          <mxGeometry width="50" height="50" relative="1" as="geometry">
            <mxPoint x="-610" y="1530" as="sourcePoint" />
            <mxPoint x="-580" y="1500" as="targetPoint" />
          </mxGeometry>
        </mxCell>
        <mxCell id="VEbp2qO7dAAzu8CqoU0H-93" value="" style="endArrow=none;html=1;rounded=0;entryX=1;entryY=1;entryDx=0;entryDy=0;exitX=0;exitY=0;exitDx=0;exitDy=0;" edge="1" parent="1" source="VEbp2qO7dAAzu8CqoU0H-91" target="VEbp2qO7dAAzu8CqoU0H-89">
          <mxGeometry width="50" height="50" relative="1" as="geometry">
            <mxPoint x="-600" y="1540" as="sourcePoint" />
            <mxPoint x="-578" y="1518" as="targetPoint" />
          </mxGeometry>
        </mxCell>
        <mxCell id="VEbp2qO7dAAzu8CqoU0H-94" value="A" style="ellipse;whiteSpace=wrap;html=1;aspect=fixed;" vertex="1" parent="1">
          <mxGeometry x="-840" y="1600" width="80" height="80" as="geometry" />
        </mxCell>
        <mxCell id="VEbp2qO7dAAzu8CqoU0H-95" value="D" style="ellipse;whiteSpace=wrap;html=1;aspect=fixed;" vertex="1" parent="1">
          <mxGeometry x="-760" y="1520" width="80" height="80" as="geometry" />
        </mxCell>
        <mxCell id="VEbp2qO7dAAzu8CqoU0H-96" value="" style="endArrow=none;html=1;rounded=0;exitX=1;exitY=1;exitDx=0;exitDy=0;entryX=0;entryY=0;entryDx=0;entryDy=0;" edge="1" parent="1" source="VEbp2qO7dAAzu8CqoU0H-95" target="VEbp2qO7dAAzu8CqoU0H-90">
          <mxGeometry width="50" height="50" relative="1" as="geometry">
            <mxPoint x="-392" y="1272" as="sourcePoint" />
            <mxPoint x="-750" y="1610" as="targetPoint" />
          </mxGeometry>
        </mxCell>
        <mxCell id="VEbp2qO7dAAzu8CqoU0H-97" value="" style="endArrow=none;html=1;rounded=0;entryX=1;entryY=0;entryDx=0;entryDy=0;exitX=0;exitY=1;exitDx=0;exitDy=0;" edge="1" parent="1" source="VEbp2qO7dAAzu8CqoU0H-95" target="VEbp2qO7dAAzu8CqoU0H-94">
          <mxGeometry width="50" height="50" relative="1" as="geometry">
            <mxPoint x="-382" y="1282" as="sourcePoint" />
            <mxPoint x="-358" y="1258" as="targetPoint" />
          </mxGeometry>
        </mxCell>
        <mxCell id="VEbp2qO7dAAzu8CqoU0H-98" value="T" style="ellipse;whiteSpace=wrap;html=1;aspect=fixed;" vertex="1" parent="1">
          <mxGeometry x="-240" y="1600" width="80" height="80" as="geometry" />
        </mxCell>
        <mxCell id="VEbp2qO7dAAzu8CqoU0H-99" value="" style="endArrow=none;html=1;rounded=0;entryX=0;entryY=0;entryDx=0;entryDy=0;exitX=1;exitY=1;exitDx=0;exitDy=0;" edge="1" parent="1" source="VEbp2qO7dAAzu8CqoU0H-91" target="VEbp2qO7dAAzu8CqoU0H-98">
          <mxGeometry width="50" height="50" relative="1" as="geometry">
            <mxPoint x="-450" y="1680" as="sourcePoint" />
            <mxPoint x="-400" y="1630" as="targetPoint" />
          </mxGeometry>
        </mxCell>
        <mxCell id="VEbp2qO7dAAzu8CqoU0H-100" value="O" style="ellipse;whiteSpace=wrap;html=1;aspect=fixed;" vertex="1" parent="1">
          <mxGeometry x="-400" y="1600" width="80" height="80" as="geometry" />
        </mxCell>
        <mxCell id="VEbp2qO7dAAzu8CqoU0H-101" value="" style="endArrow=none;html=1;rounded=0;entryX=1;entryY=0;entryDx=0;entryDy=0;exitX=0;exitY=1;exitDx=0;exitDy=0;" edge="1" parent="1" source="VEbp2qO7dAAzu8CqoU0H-91" target="VEbp2qO7dAAzu8CqoU0H-100">
          <mxGeometry width="50" height="50" relative="1" as="geometry">
            <mxPoint x="-428" y="1588" as="sourcePoint" />
            <mxPoint x="-38" y="1258" as="targetPoint" />
          </mxGeometry>
        </mxCell>
        <mxCell id="VEbp2qO7dAAzu8CqoU0H-102" value="I" style="ellipse;whiteSpace=wrap;html=1;aspect=fixed;" vertex="1" parent="1">
          <mxGeometry x="-600" y="1680" width="80" height="80" as="geometry" />
        </mxCell>
        <mxCell id="VEbp2qO7dAAzu8CqoU0H-103" value="" style="endArrow=none;html=1;rounded=0;entryX=0;entryY=0;entryDx=0;entryDy=0;exitX=1;exitY=1;exitDx=0;exitDy=0;" edge="1" parent="1" source="VEbp2qO7dAAzu8CqoU0H-90" target="VEbp2qO7dAAzu8CqoU0H-102">
          <mxGeometry width="50" height="50" relative="1" as="geometry">
            <mxPoint x="-612" y="1668" as="sourcePoint" />
            <mxPoint x="-610" y="1710" as="targetPoint" />
          </mxGeometry>
        </mxCell>
        <mxCell id="VEbp2qO7dAAzu8CqoU0H-104" value="N" style="ellipse;whiteSpace=wrap;html=1;aspect=fixed;fillColor=#dae8fc;strokeColor=#6c8ebf;" vertex="1" parent="1">
          <mxGeometry x="-480" y="1680" width="80" height="80" as="geometry" />
        </mxCell>
        <mxCell id="VEbp2qO7dAAzu8CqoU0H-105" value="" style="endArrow=none;html=1;rounded=0;entryX=1;entryY=0;entryDx=0;entryDy=0;exitX=0;exitY=1;exitDx=0;exitDy=0;" edge="1" parent="1" target="VEbp2qO7dAAzu8CqoU0H-104">
          <mxGeometry width="50" height="50" relative="1" as="geometry">
            <mxPoint x="-388" y="1668" as="sourcePoint" />
            <mxPoint x="-118" y="1338" as="targetPoint" />
          </mxGeometry>
        </mxCell>
        <mxCell id="VEbp2qO7dAAzu8CqoU0H-106" value="M" style="ellipse;whiteSpace=wrap;html=1;aspect=fixed;" vertex="1" parent="1">
          <mxGeometry x="-640" y="80" width="80" height="80" as="geometry" />
        </mxCell>
        <mxCell id="VEbp2qO7dAAzu8CqoU0H-107" value="O" style="ellipse;whiteSpace=wrap;html=1;aspect=fixed;fillColor=#dae8fc;strokeColor=#6c8ebf;" vertex="1" parent="1">
          <mxGeometry x="-560" y="160" width="80" height="80" as="geometry" />
        </mxCell>
        <mxCell id="VEbp2qO7dAAzu8CqoU0H-108" value="" style="endArrow=none;html=1;rounded=0;exitX=0;exitY=0;exitDx=0;exitDy=0;entryX=1;entryY=1;entryDx=0;entryDy=0;" edge="1" parent="1" source="VEbp2qO7dAAzu8CqoU0H-107" target="VEbp2qO7dAAzu8CqoU0H-106">
          <mxGeometry width="50" height="50" relative="1" as="geometry">
            <mxPoint x="-607" y="209" as="sourcePoint" />
            <mxPoint x="-557" y="159" as="targetPoint" />
          </mxGeometry>
        </mxCell>
        <mxCell id="VEbp2qO7dAAzu8CqoU0H-109" value="M" style="ellipse;whiteSpace=wrap;html=1;aspect=fixed;fillColor=#dae8fc;strokeColor=#6c8ebf;" vertex="1" parent="1">
          <mxGeometry x="-800" y="80" width="80" height="80" as="geometry" />
        </mxCell>
        <mxCell id="VEbp2qO7dAAzu8CqoU0H-110" value="O" style="ellipse;whiteSpace=wrap;html=1;aspect=fixed;" vertex="1" parent="1">
          <mxGeometry x="360" y="80" width="80" height="80" as="geometry" />
        </mxCell>
        <mxCell id="VEbp2qO7dAAzu8CqoU0H-111" value="M" style="ellipse;whiteSpace=wrap;html=1;aspect=fixed;" vertex="1" parent="1">
          <mxGeometry x="200" y="160" width="80" height="80" as="geometry" />
        </mxCell>
        <mxCell id="VEbp2qO7dAAzu8CqoU0H-112" value="T" style="ellipse;whiteSpace=wrap;html=1;aspect=fixed;" vertex="1" parent="1">
          <mxGeometry x="520" y="160" width="80" height="80" as="geometry" />
        </mxCell>
        <mxCell id="VEbp2qO7dAAzu8CqoU0H-113" value="" style="endArrow=none;html=1;rounded=0;entryX=0;entryY=1;entryDx=0;entryDy=0;" edge="1" parent="1" source="VEbp2qO7dAAzu8CqoU0H-111" target="VEbp2qO7dAAzu8CqoU0H-110">
          <mxGeometry width="50" height="50" relative="1" as="geometry">
            <mxPoint x="350" y="170" as="sourcePoint" />
            <mxPoint x="380" y="140" as="targetPoint" />
          </mxGeometry>
        </mxCell>
        <mxCell id="VEbp2qO7dAAzu8CqoU0H-114" value="" style="endArrow=none;html=1;rounded=0;entryX=1;entryY=1;entryDx=0;entryDy=0;exitX=0;exitY=0;exitDx=0;exitDy=0;" edge="1" parent="1" source="VEbp2qO7dAAzu8CqoU0H-112" target="VEbp2qO7dAAzu8CqoU0H-110">
          <mxGeometry width="50" height="50" relative="1" as="geometry">
            <mxPoint x="360" y="180" as="sourcePoint" />
            <mxPoint x="382" y="158" as="targetPoint" />
          </mxGeometry>
        </mxCell>
        <mxCell id="VEbp2qO7dAAzu8CqoU0H-115" value="A" style="ellipse;whiteSpace=wrap;html=1;aspect=fixed;fillColor=#dae8fc;strokeColor=#6c8ebf;" vertex="1" parent="1">
          <mxGeometry x="120" y="240" width="80" height="80" as="geometry" />
        </mxCell>
        <mxCell id="VEbp2qO7dAAzu8CqoU0H-116" value="" style="endArrow=none;html=1;rounded=0;exitX=1;exitY=0;exitDx=0;exitDy=0;entryX=0;entryY=1;entryDx=0;entryDy=0;" edge="1" parent="1" source="VEbp2qO7dAAzu8CqoU0H-115" target="VEbp2qO7dAAzu8CqoU0H-111">
          <mxGeometry width="50" height="50" relative="1" as="geometry">
            <mxPoint x="568" y="-88" as="sourcePoint" />
            <mxPoint x="210" y="250" as="targetPoint" />
          </mxGeometry>
        </mxCell>
        <mxCell id="VEbp2qO7dAAzu8CqoU0H-130" value="M" style="ellipse;whiteSpace=wrap;html=1;aspect=fixed;" vertex="1" parent="1">
          <mxGeometry x="120" y="720" width="80" height="80" as="geometry" />
        </mxCell>
        <mxCell id="VEbp2qO7dAAzu8CqoU0H-131" value="E" style="ellipse;whiteSpace=wrap;html=1;aspect=fixed;" vertex="1" parent="1">
          <mxGeometry x="40" y="880" width="80" height="80" as="geometry" />
        </mxCell>
        <mxCell id="VEbp2qO7dAAzu8CqoU0H-132" value="O" style="ellipse;whiteSpace=wrap;html=1;aspect=fixed;" vertex="1" parent="1">
          <mxGeometry x="280" y="800" width="80" height="80" as="geometry" />
        </mxCell>
        <mxCell id="VEbp2qO7dAAzu8CqoU0H-133" value="" style="endArrow=none;html=1;rounded=0;entryX=0;entryY=1;entryDx=0;entryDy=0;exitX=1;exitY=0;exitDx=0;exitDy=0;" edge="1" parent="1" source="VEbp2qO7dAAzu8CqoU0H-136" target="VEbp2qO7dAAzu8CqoU0H-130">
          <mxGeometry width="50" height="50" relative="1" as="geometry">
            <mxPoint x="110" y="810" as="sourcePoint" />
            <mxPoint x="140" y="780" as="targetPoint" />
          </mxGeometry>
        </mxCell>
        <mxCell id="VEbp2qO7dAAzu8CqoU0H-134" value="" style="endArrow=none;html=1;rounded=0;entryX=1;entryY=1;entryDx=0;entryDy=0;exitX=0;exitY=0;exitDx=0;exitDy=0;" edge="1" parent="1" source="VEbp2qO7dAAzu8CqoU0H-132" target="VEbp2qO7dAAzu8CqoU0H-130">
          <mxGeometry width="50" height="50" relative="1" as="geometry">
            <mxPoint x="120" y="820" as="sourcePoint" />
            <mxPoint x="142" y="798" as="targetPoint" />
          </mxGeometry>
        </mxCell>
        <mxCell id="VEbp2qO7dAAzu8CqoU0H-135" value="A" style="ellipse;whiteSpace=wrap;html=1;aspect=fixed;" vertex="1" parent="1">
          <mxGeometry x="-120" y="880" width="80" height="80" as="geometry" />
        </mxCell>
        <mxCell id="VEbp2qO7dAAzu8CqoU0H-136" value="D" style="ellipse;whiteSpace=wrap;html=1;aspect=fixed;" vertex="1" parent="1">
          <mxGeometry x="-40" y="800" width="80" height="80" as="geometry" />
        </mxCell>
        <mxCell id="VEbp2qO7dAAzu8CqoU0H-137" value="" style="endArrow=none;html=1;rounded=0;exitX=1;exitY=1;exitDx=0;exitDy=0;entryX=0;entryY=0;entryDx=0;entryDy=0;" edge="1" parent="1" source="VEbp2qO7dAAzu8CqoU0H-136" target="VEbp2qO7dAAzu8CqoU0H-131">
          <mxGeometry width="50" height="50" relative="1" as="geometry">
            <mxPoint x="328" y="552" as="sourcePoint" />
            <mxPoint x="-30" y="890" as="targetPoint" />
          </mxGeometry>
        </mxCell>
        <mxCell id="VEbp2qO7dAAzu8CqoU0H-138" value="" style="endArrow=none;html=1;rounded=0;entryX=1;entryY=0;entryDx=0;entryDy=0;exitX=0;exitY=1;exitDx=0;exitDy=0;" edge="1" parent="1" source="VEbp2qO7dAAzu8CqoU0H-136" target="VEbp2qO7dAAzu8CqoU0H-135">
          <mxGeometry width="50" height="50" relative="1" as="geometry">
            <mxPoint x="338" y="562" as="sourcePoint" />
            <mxPoint x="362" y="538" as="targetPoint" />
          </mxGeometry>
        </mxCell>
        <mxCell id="VEbp2qO7dAAzu8CqoU0H-139" value="T" style="ellipse;whiteSpace=wrap;html=1;aspect=fixed;" vertex="1" parent="1">
          <mxGeometry x="360" y="880" width="80" height="80" as="geometry" />
        </mxCell>
        <mxCell id="VEbp2qO7dAAzu8CqoU0H-140" value="" style="endArrow=none;html=1;rounded=0;entryX=0;entryY=0;entryDx=0;entryDy=0;exitX=1;exitY=1;exitDx=0;exitDy=0;" edge="1" parent="1" source="VEbp2qO7dAAzu8CqoU0H-132" target="VEbp2qO7dAAzu8CqoU0H-139">
          <mxGeometry width="50" height="50" relative="1" as="geometry">
            <mxPoint x="270" y="960" as="sourcePoint" />
            <mxPoint x="320" y="910" as="targetPoint" />
          </mxGeometry>
        </mxCell>
        <mxCell id="VEbp2qO7dAAzu8CqoU0H-141" value="I" style="ellipse;whiteSpace=wrap;html=1;aspect=fixed;fillColor=#dae8fc;strokeColor=#6c8ebf;" vertex="1" parent="1">
          <mxGeometry x="120" y="960" width="80" height="80" as="geometry" />
        </mxCell>
        <mxCell id="VEbp2qO7dAAzu8CqoU0H-142" value="" style="endArrow=none;html=1;rounded=0;entryX=0;entryY=0;entryDx=0;entryDy=0;exitX=1;exitY=1;exitDx=0;exitDy=0;" edge="1" parent="1" source="VEbp2qO7dAAzu8CqoU0H-131" target="VEbp2qO7dAAzu8CqoU0H-141">
          <mxGeometry width="50" height="50" relative="1" as="geometry">
            <mxPoint x="60" y="1040" as="sourcePoint" />
            <mxPoint x="110" y="990" as="targetPoint" />
          </mxGeometry>
        </mxCell>
        <mxCell id="VEbp2qO7dAAzu8CqoU0H-145" value="insertNode(M)" style="text;html=1;strokeColor=none;fillColor=none;align=center;verticalAlign=middle;whiteSpace=wrap;rounded=0;fontFamily=Lucida Console;fontSize=16;" vertex="1" parent="1">
          <mxGeometry x="-800" y="40" width="100" height="30" as="geometry" />
        </mxCell>
        <mxCell id="VEbp2qO7dAAzu8CqoU0H-146" value="insertNode(O)" style="text;html=1;strokeColor=none;fillColor=none;align=center;verticalAlign=middle;whiteSpace=wrap;rounded=0;fontFamily=Lucida Console;fontSize=16;" vertex="1" parent="1">
          <mxGeometry x="-640" y="40" width="100" height="30" as="geometry" />
        </mxCell>
        <mxCell id="VEbp2qO7dAAzu8CqoU0H-148" value="insertNode(T)" style="text;html=1;strokeColor=none;fillColor=none;align=center;verticalAlign=middle;whiteSpace=wrap;rounded=0;fontFamily=Lucida Console;fontSize=16;" vertex="1" parent="1">
          <mxGeometry x="-440" y="40" width="100" height="30" as="geometry" />
        </mxCell>
        <mxCell id="VEbp2qO7dAAzu8CqoU0H-149" value="insertNode(A)" style="text;html=1;strokeColor=none;fillColor=none;align=center;verticalAlign=middle;whiteSpace=wrap;rounded=0;fontFamily=Lucida Console;fontSize=16;" vertex="1" parent="1">
          <mxGeometry x="280" y="40" width="100" height="30" as="geometry" />
        </mxCell>
        <mxCell id="VEbp2qO7dAAzu8CqoU0H-150" value="insertNode(D)" style="text;html=1;strokeColor=none;fillColor=none;align=center;verticalAlign=middle;whiteSpace=wrap;rounded=0;fontFamily=Lucida Console;fontSize=16;" vertex="1" parent="1">
          <mxGeometry x="-720" y="330" width="100" height="30" as="geometry" />
        </mxCell>
        <mxCell id="VEbp2qO7dAAzu8CqoU0H-151" value="insertNode(E)" style="text;html=1;strokeColor=none;fillColor=none;align=center;verticalAlign=middle;whiteSpace=wrap;rounded=0;fontFamily=Lucida Console;fontSize=16;" vertex="1" parent="1">
          <mxGeometry x="280" y="360" width="100" height="30" as="geometry" />
        </mxCell>
        <mxCell id="VEbp2qO7dAAzu8CqoU0H-152" value="insertNode(I)" style="text;html=1;strokeColor=none;fillColor=none;align=center;verticalAlign=middle;whiteSpace=wrap;rounded=0;fontFamily=Lucida Console;fontSize=16;" vertex="1" parent="1">
          <mxGeometry x="-40" y="720" width="100" height="30" as="geometry" />
        </mxCell>
        <mxCell id="VEbp2qO7dAAzu8CqoU0H-153" value="rotateRight()&lt;br&gt;rotateLeft()" style="text;html=1;strokeColor=none;fillColor=none;align=center;verticalAlign=middle;whiteSpace=wrap;rounded=0;fontFamily=Lucida Console;fontSize=16;" vertex="1" parent="1">
          <mxGeometry x="-280" y="1090" width="130" height="30" as="geometry" />
        </mxCell>
        <mxCell id="VEbp2qO7dAAzu8CqoU0H-154" value="insertNode(S)" style="text;html=1;strokeColor=none;fillColor=none;align=center;verticalAlign=middle;whiteSpace=wrap;rounded=0;fontFamily=Lucida Console;fontSize=16;" vertex="1" parent="1">
          <mxGeometry x="-800" y="1080" width="100" height="30" as="geometry" />
        </mxCell>
        <mxCell id="VEbp2qO7dAAzu8CqoU0H-155" value="insertNode(N)" style="text;html=1;strokeColor=none;fillColor=none;align=center;verticalAlign=middle;whiteSpace=wrap;rounded=0;fontFamily=Lucida Console;fontSize=16;" vertex="1" parent="1">
          <mxGeometry x="-800" y="1440" width="100" height="30" as="geometry" />
        </mxCell>
      </root>
    </mxGraphModel>
  </diagram>
</mxfile>
